<?xml version="1.0" encoding="UTF-8"?>
<svg id="Layer_1" xmlns="http://www.w3.org/2000/svg" version="1.1" viewBox="0 0 1296 1728">
  <!-- Generator: Adobe Illustrator 30.2.1, SVG Export Plug-In . SVG Version: 2.1.1 Build 1)  -->
  <path d="M1215.09,621.15c-42.86,0-80.71,81.43-93.57,106.43-47.14,83.57-147.14,297.85-276.42,297.85-43.57,0-92.85-31.43-92.85-120,0-59.82,21.61-126.07,57.32-188.57,74.46-31.61,185.71-61.25,276.96-98.57,104.28-42.86,154.28-81.43,155.71-122.14.71-29.29-25.71-44.28-77.14-44.28-150.52,0-318.92,122.64-399.55,269.72-9.41-164.58-130.06-269.72-313.92-269.72s-358.74,105.71-365.17,289.99c-3.21,92.86,45.18,177.14,146.6,177.14,78.57,0,147.5-50,150.17-125.71,1.25-35-20-61.43-50-61.43-19.29,0-37.5,10.71-42.32,24.28l5,2.86c5.54-15,24.28-22.14,38.57-22.14,25,0,44.11,25,43.03,56.43-2.14,58.57-55.36,110-122.5,110-80,0-129.64-68.57-126.6-158.57,6.61-186.42,177.14-284.99,337.14-284.99,169.28,0,284.1,107.85,278.74,259.99-.29,8.49-.95,17.23-1.97,26.17-42.35,22.68-96.5,60.04-96.5,108.12,0,17.86,7.14,29.28,17.86,28.57l3.57-4.29c-9.29.71-16.43-9.29-16.43-25,0-43.31,50.97-80.42,90.83-101.85-1.84,14.21-4.59,28.9-8.2,43.89-3.29,10.2-6.13,20.43-8.45,30.68-35.15,113.13-116.45,235.71-231.77,293.71-42.86,21.43-91.25,34.28-142.68,34.28-44.28,0-85.89-13.57-128.39-25.71l.89-2.14c66.43-2.14,137.68-35,218.39-180.71,73.21-131.43,128.21-212.14,197.32-227.85,15.89-4.29,37.86-2.86,48.21,10.71l2.14-3.57c-8.75-14.29-31.43-16.43-50.18-14.29-75.36,10-150.35,72.86-228.74,211.42-55.53,97.86-97.5,193.57-185.53,197.14-75,0-96.25-42.86-140.53-42.86-15.71,0-29.64,7.14-30.36,26.43-.54,16.43,14.11,26.43,40.54,30,44.11,5.72,85.18-5.71,126.96.71,41.78,13.57,82.68,27.86,131.25,27.86,145.56,0,294.72-91.47,367.7-231.8,11.61,68.58,56.28,105.38,112.02,105.38,120.71,0,205.71-141.78,261.25-245.89-33.21,84.64-51.61,176.25-87.14,250.53-75,46.43-152.68,49.64-226.96,77.5-40.71,15.71-88.57,42.14-88.57,92.14,0,37.14,32.14,67.14,81.43,67.14,92.86,0,162.14-67.86,203.57-130.71,24.64-37.14,42.86-77.86,57.32-119.1.36-.18.89-.54,1.25-.89,45-35,88.57-77.86,115.71-137.14.71-2.14-4.29-2.14-5.72,0-26.07,56.43-66.96,97.68-108.57,130.35,34.64-101.96,47.32-204.46,77.86-257.49,27.86-49.29,62.85-57.14,85-72.14,25-16.43,35.71-32.14,36.43-46.43,0-13.57-7.14-21.43-20-21.43ZM1171.52,459.01c44.28,0,66.43,12.14,65.71,37.14-1.43,37.14-51.43,76.43-151.43,116.43-84.11,33.04-190.35,62.86-271.07,95.18,79.64-133.57,222.85-248.74,356.78-248.74ZM977.24,1089.71c-67.14,95-146.43,136.43-202.85,136.43-35.71,0-59.28-17.14-58.57-42.86.71-21.43,21.43-41.43,61.43-58.57,72.5-32.86,144.64-27.68,225-76.78-7.5,14.64-15.71,28.75-25,41.78Z"/>
</svg>